<svg version="1.0" xmlns="http://www.w3.org/2000/svg" width="20" height="20" viewBox="0 0 512.000000 512.000000" preserveAspectRatio="xMidYMid meet" fill="currentColor" stroke="none">
	<g transform="translate(0.000000,512.000000) scale(0.100000,-0.100000)">
		<path d="M3482 4509 c-23 -4 -70 -20 -105 -35 -58 -26 -137 -102 -1320 -1283
                    -692 -691 -1271 -1277 -1288 -1302 -57 -89 -66 -138 -123 -651 -41 -364 -52   
                    -496 -45 -522 13 -48 41 -79 89 -101 l41 -19 482 53 c265 30 506 60 536 68
                    106 27 147 58 396 303 867 850 2279 2260 2304 2299 91 141 100 315 25 471 -34
                    69 -59 97 -323 361 -251 250 -294 289 -351 316 -105 50 -209 64 -318 42z m155
                    -319 c15 -6 146 -129 291 -273 287 -287 294 -296 272 -379 -10 -36 -41 -72
                    -196 -228 l-184 -185 -345 345 -345 345 177 177 c98 98 191 184 208 193 35 17
                    83 19 122 5z m-643 -1881 c-330 -326 -688 -681 -797 -789 l-197 -195 -340 340
                    -340 340 792 792 793 793 344 -344 343 -343 -598 -594z m-1554 -875 l335 -335
                    -39 -34 c-21 -19 -53 -37 -70 -40 -60 -11 -721 -83 -725 -79 -7 6 69 695 81
                    732 11 37 54 92 71 92 7 0 163 -151 347 -336z" />
	</g>
</svg>
